<?xml version="1.0" encoding="UTF-8"?><svg xmlns:svg="http://www.w3.org/2000/svg" xmlns="http://www.w3.org/2000/svg" xmlns:xlink="http://www.w3.org/1999/xlink" version="1.0" width="642" height="202" viewBox="0 0 642 202" ><line x1="1" y1="1" x2="201" y2="1" stroke="#000000" stroke-width="1" /><line x1="1" y1="31" x2="201" y2="31" stroke="#000000" stroke-width="1" /><line x1="1" y1="1" x2="1" y2="31" stroke="#000000" stroke-width="1" /><text font-size="18" font-family="Palatino, Georgia, Times New Roman, serif" x="101" y="17" text-anchor="middle" dominant-baseline="middle" >SimpleHeader Length</text><line x1="201" y1="1" x2="223.5" y2="1" stroke="#000000" stroke-width="1" /><line stroke-dasharray="1,3" x1="223.5" y1="1" x2="213.5" y2="31" stroke="#000000" stroke-width="1" /><line x1="213.5" y1="31" x2="201" y2="31" stroke="#000000" stroke-width="1" /><line x1="241" y1="1" x2="228.5" y2="1" stroke="#000000" stroke-width="1" /><line stroke-dasharray="1,3" x1="228.5" y1="1" x2="218.5" y2="31" stroke="#000000" stroke-width="1" /><line x1="218.5" y1="31" x2="241" y2="31" stroke="#000000" stroke-width="1" /><line x1="241" y1="1" x2="641" y2="1" stroke="#000000" stroke-width="1" /><line x1="641" y1="1" x2="641" y2="31" stroke="#000000" stroke-width="1" /><line x1="241" y1="1" x2="241" y2="31" stroke="#000000" stroke-width="1" /><text font-size="18" font-family="Palatino, Georgia, Times New Roman, serif" x="441" y="17" text-anchor="middle" dominant-baseline="middle" >SimpleHeader</text><text font-size="11" font-family="Courier New, monospace" font-style="normal" dominant-baseline="middle" x="-4" y="16" text-anchor="end" >00</text><text font-size="11" font-family="Courier New, monospace" font-style="normal" dominant-baseline="middle" x="-4" y="46" text-anchor="end" >10</text><line x1="1" y1="31" x2="1" y2="46" stroke="#000000" stroke-width="1" /><line x1="641" y1="31" x2="641" y2="46" stroke="#000000" stroke-width="1" /><line stroke-dasharray="1,1" x1="1" y1="46" x2="641" y2="76" stroke="#000000" stroke-width="1" /><line x1="641" y1="31" x2="641" y2="76" stroke="#000000" stroke-width="1" /><line stroke-dasharray="1,1" x1="1" y1="56" x2="641" y2="86" stroke="#000000" stroke-width="1" /><line x1="1" y1="56" x2="1" y2="86" stroke="#000000" stroke-width="1" /><line x1="1" y1="86" x2="1" y2="101" stroke="#000000" stroke-width="1" /><line x1="641" y1="86" x2="641" y2="101" stroke="#000000" stroke-width="1" /><text font-size="11" font-family="Palatino, Georgia, Times New Roman, serif" font-style="italic" dominant-baseline="middle" x="-4" y="116" text-anchor="end" >i+<tspan font-size="11" font-family="Courier New, monospace" font-style="normal" dominant-baseline="middle" >00</tspan></text><line x1="1" y1="101" x2="161" y2="101" stroke="#000000" stroke-width="1" /><line x1="1" y1="131" x2="161" y2="131" stroke="#000000" stroke-width="1" /><line x1="1" y1="101" x2="1" y2="131" stroke="#000000" stroke-width="1" /><text font-size="18" font-family="Palatino, Georgia, Times New Roman, serif" x="81" y="117" text-anchor="middle" dominant-baseline="middle" >Ciphertext Length</text><line x1="161" y1="101" x2="183.5" y2="101" stroke="#000000" stroke-width="1" /><line stroke-dasharray="1,3" x1="183.5" y1="101" x2="173.5" y2="131" stroke="#000000" stroke-width="1" /><line x1="173.5" y1="131" x2="161" y2="131" stroke="#000000" stroke-width="1" /><line x1="201" y1="101" x2="188.5" y2="101" stroke="#000000" stroke-width="1" /><line stroke-dasharray="1,3" x1="188.5" y1="101" x2="178.5" y2="131" stroke="#000000" stroke-width="1" /><line x1="178.5" y1="131" x2="201" y2="131" stroke="#000000" stroke-width="1" /><line x1="201" y1="101" x2="641" y2="101" stroke="#000000" stroke-width="1" /><line x1="641" y1="101" x2="641" y2="131" stroke="#000000" stroke-width="1" /><line x1="201" y1="101" x2="201" y2="131" stroke="#000000" stroke-width="1" /><text font-size="18" font-family="Palatino, Georgia, Times New Roman, serif" x="421" y="117" text-anchor="middle" dominant-baseline="middle" >Ciphertext</text><text font-size="11" font-family="Palatino, Georgia, Times New Roman, serif" font-style="italic" dominant-baseline="middle" x="-4" y="116" text-anchor="end" >i+<tspan font-size="11" font-family="Courier New, monospace" font-style="normal" dominant-baseline="middle" >00</tspan></text><text font-size="11" font-family="Palatino, Georgia, Times New Roman, serif" font-style="italic" dominant-baseline="middle" x="-4" y="146" text-anchor="end" >i+<tspan font-size="11" font-family="Courier New, monospace" font-style="normal" dominant-baseline="middle" >10</tspan></text><line x1="1" y1="131" x2="1" y2="146" stroke="#000000" stroke-width="1" /><line x1="641" y1="131" x2="641" y2="146" stroke="#000000" stroke-width="1" /><line stroke-dasharray="1,1" x1="1" y1="146" x2="641" y2="176" stroke="#000000" stroke-width="1" /><line x1="641" y1="131" x2="641" y2="176" stroke="#000000" stroke-width="1" /><line stroke-dasharray="1,1" x1="1" y1="156" x2="641" y2="186" stroke="#000000" stroke-width="1" /><line x1="1" y1="156" x2="1" y2="186" stroke="#000000" stroke-width="1" /><line x1="1" y1="186" x2="1" y2="201" stroke="#000000" stroke-width="1" /><line x1="641" y1="186" x2="641" y2="201" stroke="#000000" stroke-width="1" /><text font-size="11" font-family="Palatino, Georgia, Times New Roman, serif" font-style="italic" dominant-baseline="middle" x="-4" y="216" text-anchor="end" >i+<tspan font-size="11" font-family="Courier New, monospace" font-style="normal" dominant-baseline="middle" >00</tspan></text><line x1="1" y1="201" x2="641" y2="201" stroke="#000000" stroke-width="1" /></svg>